<svg class="diagram-root" style="background: #f5f6f6" xmlns="http://www.w3.org/2000/svg" xmlns:xlink="http://www.w3.org/1999/xlink"><style>.diagram-root { font-family: "Helvetica Neue", sans-serif; font-size: 12px; } .t { overflow: visible; } .t-bg { y: 40; fill: #fff;   } .th { fill: #005aa0;   } .tht { fill: #fff; font-size: 14px;  } .tf { fill: #323c46; overflow: visible; } .tf.pk { fill: #005aa0; font-weight: bold; } .tf.fk { font-weight: bold; } .ty { fill: #adb1b5; font-weight: normal; text-anchor: end; } .r { fill: transparent; stroke: #c3c3c3; stroke-width: 1; } .l { stroke: 1; } .i { fill: #c2c7ce; stroke: #c2c7ce; } .i.ix { fill: #afb3b6; stroke: #000; } .fa { fill: transparent; overflow: visible; } .fa .bg.hover { fill: #f7f7f7; } .c { cy: 12; r: 4; stroke: #d2d2dc; fill: #d2d2dc; } .hr { fill: transparent; stroke: #323c46; stroke-opacity: 0.035; stroke-width: 13; } .dc { stroke: #fa5a3c; fill: #fa5a3c; } .x { stroke: white; stroke-width: 1; } .hl .th { fill: #1b9bff; } .hl .tht {  } .fhl .bg { fill: #e7f4ff; } .fhls .bg {  } .r.hl { stroke: #1b9bff; } .dim { opacity: 0.25; }</style><g class="drawing-wrapper" transform="translate(-143, -356) scale(1,1)"><g class="rs"><path d="M 345.48 568 m -1, 0 a 1,1 0 1,0 2,0 a 1,1 0 1,0 -2,0 M 345.48 568 m -0.5, 0 a 0.5,0.5 0 1,0 1,0 a 0.5,0.5 0 1,0 -1,0  M345.48 568 L345.48 568 357.48 568 M351.48 574 L351.48 574 351.48 562 M357.48 568 Q 400.11 568, 442.74 505.5 T 528 443 M 540 443 m -1, 0 a 1,1 0 1,0 2,0 a 1,1 0 1,0 -2,0 M 540 443 m -0.5, 0 a 0.5,0.5 0 1,0 1,0 a 0.5,0.5 0 1,0 -1,0  M540 443 L540 443 528 443 M534 449 L534 449 534 437" id="h626096545" class="r"></path><path d="M 902 534 m -1, 0 a 1,1 0 1,0 2,0 a 1,1 0 1,0 -2,0 M 902 534 m -0.5, 0 a 0.5,0.5 0 1,0 1,0 a 0.5,0.5 0 1,0 -1,0  M902 534 L902 534 890 534 M896 540 L896 540 896 528 M890 534 Q 850.62 534, 811.24 488.5 T 732.48 443 M 720.48 443 m -1, 0 a 1,1 0 1,0 2,0 a 1,1 0 1,0 -2,0 M 720.48 443 m -0.5, 0 a 0.5,0.5 0 1,0 1,0 a 0.5,0.5 0 1,0 -1,0  M720.48 443 L720.48 443 732.48 443 M726.48 449 L726.48 449 726.48 437" id="h3993110142" class="r"></path></g><g class="hrs"></g><g class="ts"><svg width="180.48" height="100" x="165" y="511" id="h3875120321" class="t"><rect height="40" width="180.48" class="th"></rect><text x="13" y="25" class="tht">georgia_income</text><rect height="60" width="180.48" class="t-bg"></rect><text x="13" y="61" class="tf pk">county<tspan x="167.48" class="ty">VARCHAR(30)</tspan></text><path d="M7,14A2,2 0 0,1 5,12A2,2 0 0,1 7,10A2,2 0 0,1 9,12A2,2 0 0,1 7,14M12.65,10C11.83,7.67 9.61,6 7, 6A6, 6 0 0, 0 1, 12A6, 6 0 0, 0 7, 18C9.61, 18 11.83, 16.33 12.65, 14H17V18H21V14H23V10H12.65Z" class="i pk" transform="translate(68.35499999999999, 48) scale(0.65)"></path><text x="13" y="86" class="tf">2018_avg_income<tspan x="167.48" class="ty">INT</tspan></text></svg><svg width="180.48" height="175" x="540" y="386" id="h2041626604" class="t"><rect height="40" width="180.48" class="th"></rect><text x="13" y="25" class="tht">election_data</text><rect height="135" width="180.48" class="t-bg"></rect><text x="13" y="61" class="tf pk">county<tspan x="167.48" class="ty">VARCHAR(30)</tspan></text><path d="M7,14A2,2 0 0,1 5,12A2,2 0 0,1 7,10A2,2 0 0,1 9,12A2,2 0 0,1 7,14M12.65,10C11.83,7.67 9.61,6 7, 6A6, 6 0 0, 0 1, 12A6, 6 0 0, 0 7, 18C9.61, 18 11.83, 16.33 12.65, 14H17V18H21V14H23V10H12.65Z" class="i pk" transform="translate(68.35499999999999, 48) scale(0.65)"></path><text x="13" y="86" class="tf">trump<tspan x="167.48" class="ty">INT</tspan></text><text x="13" y="111" class="tf">biden<tspan x="167.48" class="ty">INT</tspan></text><text x="13" y="136" class="tf">jorgensen<tspan x="167.48" class="ty">INT</tspan></text><text x="13" y="161" class="tf">total_county_votes<tspan x="167.48" class="ty">INT</tspan></text></svg><svg width="190.73" height="225" x="902" y="477" id="h2388585954" class="t"><rect height="40" width="190.73" class="th"></rect><text x="13" y="25" class="tht">georgia_covid_data</text><rect height="185" width="190.73" class="t-bg"></rect><text x="13" y="61" class="tf pk">county<tspan x="177.73" class="ty">VARCHAR(30)</tspan></text><path d="M7,14A2,2 0 0,1 5,12A2,2 0 0,1 7,10A2,2 0 0,1 9,12A2,2 0 0,1 7,14M12.65,10C11.83,7.67 9.61,6 7, 6A6, 6 0 0, 0 1, 12A6, 6 0 0, 0 7, 18C9.61, 18 11.83, 16.33 12.65, 14H17V18H21V14H23V10H12.65Z" class="i pk" transform="translate(78.60499999999999, 48) scale(0.65)"></path><text x="13" y="86" class="tf">confirmed_covid_cases<tspan x="177.73" class="ty">INT</tspan></text><text x="13" y="111" class="tf">confirmed_per100k<tspan x="177.73" class="ty">FLOAT</tspan></text><text x="13" y="136" class="tf">antigen_positive<tspan x="177.73" class="ty">INT</tspan></text><text x="13" y="161" class="tf">confirmed_deaths<tspan x="177.73" class="ty">INT</tspan></text><text x="13" y="186" class="tf">probable_deaths<tspan x="177.73" class="ty">INT</tspan></text><text x="13" y="211" class="tf">hospitalizations<tspan x="177.73" class="ty">INT</tspan></text></svg></g></g><text class="qdbd-link" x="10" y="20">www.quickdatabasediagrams.com</text></svg>